# xmcd CD database file generated by freedbAccess_ocx
#
# Track frame offsets:
#       150
#       16785
#       30592
#       43990
#       58820
#       74220
#       91365
#       109517
#       130675
#       152820
#       165927
#       182410
#       200582
#       213040
#       230707
#       245700
#
# Disc length: 3498 seconds
#
# Revision: 0
# Processed by: cddbd v1.5.1PL0 Copyright (c) Steve Scherf et al.
# Submitted via: CDnGo 2.00
#
DISCID=da0da810
DTITLE=Vari - Ann 70 vol.2
DYEAR=2004
DGENRE=Revival
TTITLE0=Erba di casa mia
TTITLE1=Sole che nasce sole che muore
TTITLE2=Quanto è bella lei
TTITLE3=Domani è un altro giorno
TTITLE4=Eternità
TTITLE5=Mamy blue
TTITLE6=Scandalo
TTITLE7=Amuso duro
TTITLE8=Sei bellissima
TTITLE9=Come pioveva
TTITLE10=La casa degli angeli
TTITLE11=Non si può morire dentro
TTITLE12=Canzone intelligente
TTITLE13=Bianchi cristalli sereni
TTITLE14=La mia libertà
TTITLE15=La riva bianca la riva nera
EXTD=
EXTT0=
EXTT1=
EXTT2=
EXTT3=
EXTT4=
EXTT5=
EXTT6=
EXTT7=
EXTT8=
EXTT9=
EXTT10=
EXTT11=
EXTT12=
EXTT13=
EXTT14=
EXTT15=
PLAYORDER=
